# xmcd
#
# Track frame offsets:
#        150
#        12565
#        30947
#        53905
#        72142
#        90515
#        107882
#        129797
#        153255
#        171602
#
# Disc length: 2564 seconds
#
# Revision: 0
# Processed by: cddbd v1.5.1PL0 Copyright (c) Steve Scherf et al.
# Submitted via: ExactAudioCopy v0.95a5
#
DISCID=780a020a
DTITLE=Stackridge - Extravaganza
DYEAR=1974
DGENRE=Rock
TTITLE0=Spin Round The Room
TTITLE1=Grease Paint Smiles
TTITLE2=The Volunteer
TTITLE3=Highbury Incident(Rainy July Morning)
TTITLE4=Benjamin's Giant Onion
TTITLE5=Happy In The Lord
TTITLE6=Rufus T.Firefly
TTITLE7=No One's More Important Than The Earth Worm
TTITLE8=Pocket Billiards
TTITLE9=Who's That Up There With Bill Stokes ?
EXTD=
EXTT0=
EXTT1=
EXTT2=
EXTT3=
EXTT4=
EXTT5=
EXTT6=
EXTT7=
EXTT8=
EXTT9=
PLAYORDER=
